<?xml version="1.0" standalone="no"?>
<!DOCTYPE svg PUBLIC "-//W3C//DTD SVG 20010904//EN"
 "http://www.w3.org/TR/2001/REC-SVG-20010904/DTD/svg10.dtd">
<svg version="1.0" xmlns="http://www.w3.org/2000/svg"
 width="512.000000pt" height="512.000000pt" viewBox="0 0 512.000000 512.000000"
 preserveAspectRatio="xMidYMid meet">

<g transform="translate(0.000000,512.000000) scale(0.100000,-0.100000)"
fill="#0099a1" stroke="none">
<path d="M2415 5009 c-1062 -60 -1982 -827 -2234 -1861 -54 -223 -66 -328 -66
-598 1 -275 13 -382 70 -606 108 -420 325 -803 630 -1110 365 -367 799 -598
1300 -694 231 -44 606 -46 864 -5 545 88 1092 398 1446 818 326 387 535 870
574 1332 14 156 14 439 0 563 -51 476 -254 937 -573 1309 -426 495 -1055 812
-1681 848 -55 3 -122 7 -150 9 -27 1 -108 -1 -180 -5z m373 -390 c203 -22 403
-75 595 -157 83 -34 111 -51 118 -69 12 -33 11 -989 -1 -1138 -25 -290 -96
-527 -208 -693 -39 -58 -125 -146 -190 -195 l-53 -40 -17 24 c-42 59 -939
1390 -1151 1707 -224 336 -235 355 -216 368 37 27 271 112 390 142 66 16 161
35 210 41 50 6 101 13 115 15 58 8 318 5 408 -5z m-1417 -792 c95 -139 221
-323 281 -411 59 -87 108 -166 108 -175 0 -11 -20 -29 -52 -46 -253 -136 -488
-446 -596 -785 -75 -236 -89 -359 -98 -845 l-7 -379 -44 49 c-117 131 -271
401 -348 610 -240 647 -130 1394 288 1958 33 45 108 130 165 189 81 83 108
105 118 97 7 -6 91 -124 185 -262z m2781 66 c235 -280 409 -662 463 -1019 62
-406 -4 -843 -183 -1216 -106 -223 -223 -389 -390 -557 -79 -80 -95 -92 -107
-80 -18 19 -615 900 -615 908 0 4 42 36 93 71 113 77 306 269 370 366 78 120
134 233 176 359 82 245 108 449 117 923 4 177 8 322 9 322 1 0 31 -35 67 -77z
m-1943 -1300 c84 -126 301 -448 483 -718 681 -1011 791 -1176 785 -1181 -14
-14 -195 -86 -298 -118 -488 -152 -995 -121 -1473 90 -55 25 -107 52 -113 61
-17 22 -18 1061 -2 1233 32 356 140 614 331 796 52 50 75 63 108 64 22 0 46
-30 179 -227z"/>
</g>
</svg>
